<svg xmlns="http://www.w3.org/2000/svg" viewBox="0 0 700 350" width="100%" height="100%"><defs><filter id="glow-overview" x="-20%" y="-20%" width="140%" height="140%"><feGaussianBlur stdDeviation="2.5" result="blur" /><feComposite in="SourceGraphic" in2="blur" operator="over" /></filter><pattern id="dotGridOverview" width="16" height="16" patternUnits="userSpaceOnUse"><circle cx="1" cy="1" r="0.5" fill="rgba(255,255,255,0.08)" /></pattern></defs><rect width="700" height="350" fill="#050505" /><rect width="700" height="350" fill="url(#dotGridOverview)" /><g transform="translate(10, 150)"><rect x="0" y="0" width="50" height="50" rx="4" fill="#0a0a0a" stroke="rgba(255,255,255,0.15)" stroke-width="1" /><text x="25" y="24" fill="#fff" font-size="10" font-family="monospace" text-anchor="middle" font-weight="bold">User</text><text x="25" y="38" fill="#777" font-size="8" font-family="monospace" text-anchor="middle" letter-spacing="1">USER</text></g><path d="M 60 175 L 100 175" fill="none" stroke="rgba(249,115,22,0.2)" stroke-width="1.5" stroke-dasharray="4 4" /><circle cx="60" cy="175" r="2" fill="#f97316" filter="url(#glow-overview)"><animate attributeName="cx" values="60;100" dur="2s" repeatCount="indefinite" /></circle><g transform="translate(100, 150)"><rect x="0" y="0" width="70" height="50" rx="4" fill="#111" stroke="rgba(255,255,255,0.1)" stroke-width="1" /><text x="35" y="24" fill="#fff" font-size="10" font-family="monospace" text-anchor="middle" font-weight="bold">CLI</text><text x="35" y="38" fill="#777" font-size="8" font-family="monospace" text-anchor="middle" letter-spacing="1">INTERFACE</text></g><path d="M 170 175 L 210 175" fill="none" stroke="rgba(249,115,22,0.2)" stroke-width="1.5" stroke-dasharray="4 4" /><circle cx="170" cy="175" r="2" fill="#f97316" filter="url(#glow-overview)"><animate attributeName="cx" values="170;210" dur="2s" repeatCount="indefinite" /></circle><g transform="translate(210, 135)"><rect x="-4" y="-4" width="78" height="88" rx="6" fill="transparent" stroke="rgba(255,255,255,0.15)" stroke-width="1" stroke-dasharray="2 2" /><text x="35" y="-8" fill="#555" font-size="6" font-family="monospace" text-anchor="middle" letter-spacing="1">SWAPPABLE</text><rect x="0" y="0" width="70" height="80" rx="4" fill="#0a0a0a" stroke="rgba(249,115,22,0.5)" stroke-width="1" /><text x="35" y="42" fill="#f97316" font-size="10" font-family="monospace" text-anchor="middle" font-weight="bold">CLIENT</text></g><path d="M 284 175 L 340 175" fill="none" stroke="rgba(249,115,22,0.2)" stroke-width="1.5" stroke-dasharray="4 4" /><circle cx="284" cy="175" r="2" fill="#f97316" filter="url(#glow-overview)"><animate attributeName="cx" values="284;340" dur="2s" repeatCount="indefinite" /></circle><g transform="translate(340, 100)"><rect x="0" y="0" width="120" height="150" rx="6" fill="#050505" stroke="#f97316" stroke-width="1.5" filter="url(#glow-overview)" /><rect x="4" y="4" width="112" height="142" rx="4" fill="transparent" stroke="rgba(249,115,22,0.2)" stroke-width="1" stroke-dasharray="2 2" /><circle cx="60" cy="65" r="14" fill="none" stroke="#f97316" stroke-width="1.5" stroke-dasharray="4 4"><animateTransform attributeName="transform" type="rotate" from="0 60 65" to="360 60 65" dur="8s" repeatCount="indefinite" /></circle><circle cx="60" cy="65" r="4" fill="#f97316" filter="url(#glow-overview)" /><text x="60" y="105" fill="#fff" font-size="10" font-family="monospace" text-anchor="middle" letter-spacing="1" font-weight="bold">LOBSTER-AI</text><text x="60" y="120" fill="#f97316" font-size="8" font-family="monospace" text-anchor="middle">CORE ENGINE</text></g><path d="M 460 175 L 500 175 L 500 75 L 540 75" fill="none" stroke="rgba(255,255,255,0.1)" stroke-width="1.5" /><path d="M 460 175 L 500 175 L 500 175 L 540 175" fill="none" stroke="rgba(255,255,255,0.1)" stroke-width="1.5" /><path d="M 460 175 L 500 175 L 500 275 L 540 275" fill="none" stroke="rgba(255,255,255,0.1)" stroke-width="1.5" /><path d="M 460 175 L 500 175 L 500 75 L 540 75" fill="none" stroke="#f97316" stroke-width="1.5" filter="url(#glow-overview)" stroke-dasharray="40 200"><animate attributeName="stroke-dashoffset" from="240" to="0" dur="2s" repeatCount="indefinite" /></path><path d="M 460 175 L 500 175 L 500 175 L 540 175" fill="none" stroke="#f97316" stroke-width="1.5" filter="url(#glow-overview)" stroke-dasharray="40 200"><animate attributeName="stroke-dashoffset" from="240" to="0" dur="2.5s" begin="0.5s" repeatCount="indefinite" /></path><path d="M 460 175 L 500 175 L 500 275 L 540 275" fill="none" stroke="#f97316" stroke-width="1.5" filter="url(#glow-overview)" stroke-dasharray="40 200"><animate attributeName="stroke-dashoffset" from="240" to="0" dur="2.2s" begin="1s" repeatCount="indefinite" /></path><g transform="translate(540, 50)"><rect x="0" y="0" width="150" height="50" rx="4" fill="#0a0a0a" stroke="rgba(255,255,255,0.2)" stroke-width="1" /><rect x="10" y="15" width="20" height="20" rx="2" fill="#111" stroke="#f97316" stroke-width="1" /><text x="20" y="28" fill="#f97316" font-size="8" font-family="monospace" text-anchor="middle">TR</text><text x="40" y="24" fill="#fff" font-size="9" font-family="monospace" text-anchor="start">lobster-transcriptomics</text><text x="40" y="36" fill="#777" font-size="7" font-family="monospace" text-anchor="start">DOMAIN PACKAGE</text></g><g transform="translate(540, 150)"><rect x="0" y="0" width="150" height="50" rx="4" fill="#0a0a0a" stroke="rgba(255,255,255,0.2)" stroke-width="1" /><rect x="10" y="15" width="20" height="20" rx="2" fill="#111" stroke="#f97316" stroke-width="1" /><text x="20" y="28" fill="#f97316" font-size="8" font-family="monospace" text-anchor="middle">PR</text><text x="40" y="24" fill="#fff" font-size="9" font-family="monospace" text-anchor="start">lobster-proteomics</text><text x="40" y="36" fill="#777" font-size="7" font-family="monospace" text-anchor="start">DOMAIN PACKAGE</text></g><g transform="translate(540, 250)"><rect x="0" y="0" width="150" height="50" rx="4" fill="transparent" stroke="rgba(255,255,255,0.1)" stroke-width="1" stroke-dasharray="2 2" /><circle cx="20" cy="25" r="2" fill="#555" /><circle cx="30" cy="25" r="2" fill="#555" /><circle cx="40" cy="25" r="2" fill="#555" /><text x="55" y="28" fill="#555" font-size="8" font-family="monospace" text-anchor="start" letter-spacing="1">8 MORE PACKAGES</text></g></svg>
